<svg xmlns="http://www.w3.org/2000/svg" viewBox="0 0 512 512" width="100%" height="100%">
  <defs>
    <linearGradient id="grad" x1="0%" y1="0%" x2="100%" y2="100%">
      <stop offset="0%" stop-color="#4f46e5" />
      <stop offset="100%" stop-color="#2563eb" />
    </linearGradient>
    <filter id="shadow" x="-10%" y="-10%" width="130%" height="130%">
      <feDropShadow dx="0" dy="16" stdDeviation="24" flood-color="#000000" flood-opacity="0.3"/>
    </filter>
  </defs>
  <!-- Background with premium rounded squircle shape -->
  <rect x="32" y="32" width="448" height="448" rx="128" fill="url(#grad)" />
  
  <!-- Stylized graduation cap & shield database graphic inside -->
  <g filter="url(#shadow)" fill="none" stroke="#ffffff" stroke-width="24" stroke-linecap="round" stroke-linejoin="round">
    <!-- Outer shield of security & portal gate -->
    <path d="M256 96 L400 144 L400 272 C400 360 256 416 256 416 C256 416 112 360 112 272 L112 144 Z" stroke-width="20" />
    
    <!-- Central premium database layers representing system network -->
    <ellipse cx="256" cy="200" rx="60" ry="24" fill="#ffffff" fill-opacity="0.1" />
    <path d="M196 200 C196 215 256 224 256 224 C256 224 316 215 316 200" />
    
    <path d="M196 200 L196 250 C196 265 256 274 256 274 C256 274 316 265 316 250 L316 200" />
    <path d="M196 250 L196 300 C196 315 256 324 256 324 C256 324 316 315 316 300 L316 250" />
  </g>
</svg>
